<svg width="77" height="77" viewBox="0 0 77 77" fill="none" xmlns="http://www.w3.org/2000/svg">
<g clip-path="url(#clip0_189_892)">
<path opacity="0.75" d="M77 38.5C77 48.7108 72.9438 58.5035 65.7236 65.7236C58.5035 72.9438 48.7108 77 38.5 77C28.2892 77 18.4965 72.9438 11.2764 65.7236C4.05624 58.5035 0 48.7108 0 38.5C-3.68225e-07 33.4441 0.995832 28.4377 2.93064 23.7667C4.86544 19.0957 7.70133 14.8514 11.2764 11.2764C14.8514 7.70133 19.0957 4.86544 23.7667 2.93064C28.4377 0.995832 33.4441 0 38.5 0C43.5559 0 48.5623 0.995832 53.2333 2.93064C57.9043 4.86544 62.1486 7.70133 65.7236 11.2764C69.2987 14.8514 72.1346 19.0957 74.0694 23.7667C76.0042 28.4377 77 33.4441 77 38.5Z" fill="black"/>
<path d="M46.0654 63.1633L20.2219 41.5639C20.2219 41.5639 18.043 39.0819 20.2598 36.2777C22.4766 33.4736 45.643 15.2757 46.9827 13.9896C48.3225 12.7034 55.6107 13.4001 52.6633 19.7237L30.4771 38.8016L52.7168 57.7724C52.7168 57.7724 54.647 65.3079 46.0654 63.1633Z" fill="white"/>
</g>
<defs>
<clipPath id="clip0_189_892">
<rect width="77" height="77" fill="white"/>
</clipPath>
</defs>
</svg>
